<svg width="112" height="49" viewBox="0 0 112 49" fill="none" xmlns="http://www.w3.org/2000/svg">
<path d="M10.4738 41.2801L6.70341 43.5565C5.0949 44.5277 5.78338 47 7.66233 47H109.145C110.169 47 111 46.1694 111 45.1447V17.2045C111 16.7489 110.832 16.3092 110.529 15.9692L103.178 7.73117C102.218 6.65625 100.453 7.03718 100.023 8.41204L91.4267 35.8636C91.1752 36.6668 90.4145 37.2001 89.5737 37.1626L81.9366 36.8224C81.3477 36.7961 80.8063 36.4916 80.4781 36.0019L73.3933 25.4319C72.7984 24.5444 71.5788 24.3415 70.7286 24.9885L63.1131 30.7845C62.0871 31.5653 60.5971 31.0874 60.2168 29.8554L52.9405 6.28554C52.3881 4.49633 49.8343 4.55902 49.3703 6.37317L41.5987 36.7647C41.2966 37.9462 39.9563 38.5199 38.893 37.9228L31.4372 33.7363C31.1509 33.5755 30.9124 33.3416 30.7461 33.0586L22.8997 19.7068C22.1215 18.3827 20.1633 18.5235 19.5826 19.9454L11.2325 40.3932C11.0816 40.7628 10.8155 41.0738 10.4738 41.2801Z" fill="url(#paint0_linear_7539_25796)"/>
<path d="M1.00006 47L10.4738 41.2801C10.8155 41.0738 11.0816 40.7628 11.2325 40.3932L19.5826 19.9454C20.1633 18.5235 22.1215 18.3827 22.8997 19.7068L30.7461 33.0586C30.9124 33.3416 31.1509 33.5755 31.4372 33.7363L38.893 37.9228C39.9563 38.5199 41.2966 37.9462 41.5987 36.7647L49.3703 6.37317C49.8343 4.55902 52.3881 4.49633 52.9405 6.28554L60.2168 29.8554C60.5971 31.0874 62.0871 31.5653 63.1131 30.7845L70.7286 24.9885C71.5788 24.3415 72.7984 24.5444 73.3933 25.4319L80.4781 36.0019C80.8063 36.4916 81.3477 36.7961 81.9366 36.8224L89.5737 37.1626C90.4145 37.2001 91.1752 36.6668 91.4267 35.8636L100.023 8.41204C100.453 7.03718 102.218 6.65625 103.178 7.73117L111 16.4971" stroke="#4F45B6" stroke-width="2.47368"/>
<defs>
<linearGradient id="paint0_linear_7539_25796" x1="56.0001" y1="-39.5559" x2="56.0001" y2="47" gradientUnits="userSpaceOnUse">
<stop stop-color="#9079E9"/>
<stop offset="1" stop-color="#9079E9" stop-opacity="0"/>
</linearGradient>
</defs>
</svg>
